<?xml version="1.0" encoding="UTF-8"?>
<svg width="189px" height="79px" viewBox="0 0 189 79" version="1.1" xmlns="http://www.w3.org/2000/svg" xmlns:xlink="http://www.w3.org/1999/xlink">
    <!-- Generator: Sketch 57.1 (83088) - https://sketch.com -->
    <title>Group 2</title>
    <desc>Created with Sketch.</desc>
    <g id="Page-2" stroke="none" stroke-width="1" fill="none" fill-rule="evenodd">
        <g id="Desktop-HD" transform="translate(-23.000000, -25.000000)">
            <g id="Group-2" transform="translate(23.000000, 28.000000)">
                <g id="Group" transform="translate(0.000000, 0.000000)" stroke-width="5">
                    <path d="M0.181650988,26 C8.95760205,26 8.39859511,0 24.587839,0 C40.7770829,0 46.2641551,26 60.8142618,26 C74.5633739,26 80.5323317,0 94.153769,0 C107.775206,0 119.074186,26 127.483998,26 C135.89381,26 145.281141,0 159.120999,0 C172.960857,0 181.446786,26 188.125887,26" id="Path" stroke="#3A1A7B"></path>
                    <path d="M2.84217094e-14,31 C8.77595106,31 8.21694413,5 24.406188,5 C40.5954319,5 46.0825042,31 60.6326109,31 C74.3817229,31 80.3506807,5 93.972118,5 C107.593555,5 118.892535,31 127.302347,31 C135.712159,31 145.09949,5 158.939348,5 C172.779206,5 181.265135,31 187.944236,31" id="Path" stroke="#AEC2E6"></path>
                    <path d="M2.84217094e-14,36 C8.77595106,36 8.21694413,10 24.406188,10 C40.5954319,10 46.0825042,36 60.6326109,36 C74.3817229,36 80.3506807,10 93.972118,10 C107.593555,10 118.892535,36 127.302347,36 C135.712159,36 145.09949,10 158.939348,10 C172.779206,10 181.265135,36 187.944236,36" id="Path" stroke="#428C63"></path>
                    <path d="M2.84217094e-14,41 C8.77595106,41 8.21694413,15 24.406188,15 C40.5954319,15 46.0825042,41 60.6326109,41 C74.3817229,41 80.3506807,15 93.972118,15 C107.593555,15 118.892535,41 127.302347,41 C135.712159,41 145.09949,15 158.939348,15 C172.779206,15 181.265135,41 187.944236,41" id="Path" stroke="#FFC101"></path>
                    <path d="M2.84217094e-14,44 C8.77595106,44 8.21694413,18 24.406188,18 C40.5954319,18 46.0825042,44 60.6326109,44 C74.3817229,44 80.3506807,18 93.972118,18 C107.593555,18 118.892535,44 127.302347,44 C135.712159,44 145.09949,18 158.939348,18 C172.779206,18 181.265135,44 187.944236,44" id="Path" stroke="#EF5E2B"></path>
                    <path d="M2.84217094e-14,49 C8.77595106,49 8.21694413,23 24.406188,23 C40.5954319,23 46.0825042,49 60.6326109,49 C74.3817229,49 80.3506807,23 93.972118,23 C107.593555,23 118.892535,49 127.302347,49 C135.712159,49 145.09949,23 158.939348,23 C172.779206,23 181.265135,49 187.944236,49" id="Path" stroke="#A41D2F"></path>
                </g>
                <text id="INTERPRIDE" font-family="Montserrat-SemiBold, Montserrat" font-size="20" font-weight="500" letter-spacing="6" fill="#000000">
                    <tspan x="50%" y="68" dominant-baseline="middle" text-anchor="middle">INTERPRIDE</tspan>
                </text>
            </g>
        </g>
    </g>
</svg>